<svg xmlns="http://www.w3.org/2000/svg" width="200" height="200" viewBox="0 0 200 200">
  <defs>
    <pattern id="wheat-pattern" x="0" y="0" width="100" height="100" patternUnits="userSpaceOnUse">
      <!-- Abstract diamond wheat grains — stylized, geometric -->
      <path d="M10 30 L20 10 L30 30 L20 20Z" fill="#F9E79F" opacity="0.1" transform="rotate(15 20 20)"/>
      <path d="M38 56 L46 40 L54 56 L46 48Z" fill="#F9E79F" opacity="0.08" transform="rotate(-10 46 48)"/>
      <path d="M68 28 L80 4  L92 28 L80 16Z" fill="#F9E79F" opacity="0.06" transform="rotate(5 80 16)"/>
      <path d="M84 62 L93 44 L102 62 L93 53Z" fill="#F9E79F" opacity="0.09" transform="rotate(-20 93 53)"/>
      <!-- Subtle connecting stems -->
      <line x1="20" y1="30" x2="20" y2="48" stroke="#F9E79F" stroke-width="0.3" opacity="0.07"/>
      <line x1="46" y1="56" x2="46" y2="72" stroke="#F9E79F" stroke-width="0.3" opacity="0.05"/>
      <line x1="80" y1="28" x2="80" y2="44" stroke="#F9E79F" stroke-width="0.3" opacity="0.04"/>
      <line x1="93" y1="62" x2="93" y2="78" stroke="#F9E79F" stroke-width="0.3" opacity="0.06"/>
    </pattern>
  </defs>
  <rect x="0" y="0" width="200" height="200" fill="url(#wheat-pattern)"/>
</svg>
